<svg width="620" height="620" viewBox="0 0 620 620" fill="none" xmlns="http://www.w3.org/2000/svg">
<rect width="620" height="620" rx="70" fill="#F5F5F5"/>
<g filter="url(#filter0_d_0_1)">
<path d="M204.45 83.4C215.417 83.4 226.5 84.3333 237.7 86.2C249.133 87.8333 258.233 90.05 265 92.85C267.1 93.55 268.383 94.4833 268.85 95.65C269.55 96.5833 270.017 98.3333 270.25 100.9L274.8 149.55C274.8 150.25 274.217 150.717 273.05 150.95C271.883 151.183 271.067 150.833 270.6 149.9C264.067 130.767 254.733 116.183 242.6 106.15C230.467 95.8833 215.883 90.75 198.85 90.75C182.983 90.75 168.75 95.0667 156.15 103.7C143.783 112.1 133.983 124.233 126.75 140.1C119.75 155.967 116.25 174.517 116.25 195.75C116.25 217.217 119.867 236.117 127.1 252.45C134.567 268.55 144.717 281.033 157.55 289.9C170.617 298.533 185.55 302.85 202.35 302.85C218.45 302.85 231.983 298.533 242.95 289.9C253.917 281.033 264.3 266.567 274.1 246.5C274.333 245.8 275.033 245.567 276.2 245.8C277.367 246.033 277.95 246.5 277.95 247.2L272.7 290.6C272.233 293.4 271.767 295.267 271.3 296.2C270.833 296.9 269.55 297.717 267.45 298.65C245.983 306.35 224.283 310.2 202.35 310.2C177.383 310.2 154.983 305.533 135.15 296.2C115.55 286.633 100.15 273.333 88.95 256.3C77.75 239.267 72.15 219.9 72.15 198.2C72.15 176.033 77.8667 156.317 89.3 139.05C100.967 121.55 116.833 107.9 136.9 98.1C157.2 88.3 179.717 83.4 204.45 83.4ZM452.132 170.9C452.599 170.9 452.832 171.6 452.832 173C452.832 174.4 452.599 175.1 452.132 175.1C445.366 175.1 439.299 177.667 433.932 182.8C428.799 187.933 423.899 195.867 419.232 206.6L376.182 306C375.949 307.167 374.666 307.75 372.332 307.75C370.466 307.75 369.182 307.167 368.482 306L314.932 199.95C310.032 189.683 305.716 183.033 301.982 180C298.249 176.733 293.699 175.1 288.332 175.1C287.632 175.1 287.282 174.4 287.282 173C287.282 171.6 287.632 170.9 288.332 170.9C292.532 170.9 296.032 171.017 298.832 171.25L322.282 171.6L349.232 171.25C353.199 171.017 358.682 170.9 365.682 170.9C366.382 170.9 366.732 171.6 366.732 173C366.732 174.4 366.382 175.1 365.682 175.1C352.149 175.1 345.382 177.783 345.382 183.15C345.382 184.55 345.966 186.417 347.132 188.75L386.332 262.25L409.432 206.25C411.299 201.35 412.232 197.15 412.232 193.65C412.232 187.817 410.249 183.267 406.282 180C402.316 176.733 396.832 175.1 389.832 175.1C389.366 175.1 389.132 174.4 389.132 173C389.132 171.6 389.366 170.9 389.832 170.9C396.132 170.9 400.916 171.017 404.182 171.25L425.182 171.6L439.182 171.25C441.982 171.017 446.299 170.9 452.132 170.9Z" fill="#1F1F1F"/>
</g>
<defs>
<filter id="filter0_d_0_1" x="59.85" y="68.1" width="421.282" height="267.4" filterUnits="userSpaceOnUse" color-interpolation-filters="sRGB">
<feFlood flood-opacity="0" result="BackgroundImageFix"/>
<feColorMatrix in="SourceAlpha" type="matrix" values="0 0 0 0 0 0 0 0 0 0 0 0 0 0 0 0 0 0 127 0" result="hardAlpha"/>
<feOffset dx="8" dy="5"/>
<feGaussianBlur stdDeviation="10.15"/>
<feComposite in2="hardAlpha" operator="out"/>
<feColorMatrix type="matrix" values="0 0 0 0 0 0 0 0 0 0 0 0 0 0 0 0 0 0 0.25 0"/>
<feBlend mode="normal" in2="BackgroundImageFix" result="effect1_dropShadow_0_1"/>
<feBlend mode="normal" in="SourceGraphic" in2="effect1_dropShadow_0_1" result="shape"/>
</filter>
</defs>
</svg>
