<svg width="50" height="50" viewBox="0 0 620 620" fill="none" xmlns="http://www.w3.org/2000/svg">
<rect x="5" y="5" width="610" height="610" rx="65" fill="white" stroke="black" stroke-width="10"/>
<path d="M235.8 199.6C248.333 199.6 261 200.667 273.8 202.8C286.867 204.667 297.267 207.2 305 210.4C307.4 211.2 308.867 212.267 309.4 213.6C310.2 214.667 310.733 216.667 311 219.6L316.2 275.2C316.2 276 315.533 276.533 314.2 276.8C312.867 277.067 311.933 276.667 311.4 275.6C303.933 253.733 293.267 237.067 279.4 225.6C265.533 213.867 248.867 208 229.4 208C211.267 208 195 212.933 180.6 222.8C166.467 232.4 155.267 246.267 147 264.4C139 282.533 135 303.733 135 328C135 352.533 139.133 374.133 147.4 392.8C155.933 411.2 167.533 425.467 182.2 435.6C197.133 445.467 214.2 450.4 233.4 450.4C251.8 450.4 267.267 445.467 279.8 435.6C292.333 425.467 304.2 408.933 315.4 386C315.667 385.2 316.467 384.933 317.8 385.2C319.133 385.467 319.8 386 319.8 386.8L313.8 436.4C313.267 439.6 312.733 441.733 312.2 442.8C311.667 443.6 310.2 444.533 307.8 445.6C283.267 454.4 258.467 458.8 233.4 458.8C204.867 458.8 179.267 453.467 156.6 442.8C134.2 431.867 116.6 416.667 103.8 397.2C91 377.733 84.6 355.6 84.6 330.8C84.6 305.467 91.1333 282.933 104.2 263.2C117.533 243.2 135.667 227.6 158.6 216.4C181.8 205.2 207.533 199.6 235.8 199.6ZM518.866 299.6C519.399 299.6 519.666 300.4 519.666 302C519.666 303.6 519.399 304.4 518.866 304.4C511.132 304.4 504.199 307.333 498.066 313.2C492.199 319.067 486.599 328.133 481.266 340.4L432.066 454C431.799 455.333 430.332 456 427.666 456C425.532 456 424.066 455.333 423.266 454L362.066 332.8C356.466 321.067 351.532 313.467 347.266 310C342.999 306.267 337.799 304.4 331.666 304.4C330.866 304.4 330.466 303.6 330.466 302C330.466 300.4 330.866 299.6 331.666 299.6C336.466 299.6 340.466 299.733 343.666 300L370.466 300.4L401.266 300C405.799 299.733 412.066 299.6 420.066 299.6C420.866 299.6 421.266 300.4 421.266 302C421.266 303.6 420.866 304.4 420.066 304.4C404.599 304.4 396.866 307.467 396.866 313.6C396.866 315.2 397.532 317.333 398.866 320L443.666 404L470.066 340C472.199 334.4 473.266 329.6 473.266 325.6C473.266 318.933 470.999 313.733 466.466 310C461.932 306.267 455.666 304.4 447.666 304.4C447.132 304.4 446.866 303.6 446.866 302C446.866 300.4 447.132 299.6 447.666 299.6C454.866 299.6 460.332 299.733 464.066 300L488.066 300.4L504.066 300C507.266 299.733 512.199 299.6 518.866 299.6Z" fill="black"/>
</svg>
